<?xml version="1.0" standalone="no"?>
<!DOCTYPE svg PUBLIC "-//W3C//DTD SVG 20010904//EN"
 "http://www.w3.org/TR/2001/REC-SVG-20010904/DTD/svg10.dtd">
<svg version="1.0" xmlns="http://www.w3.org/2000/svg"
 width="350.000000pt" height="350.000000pt" viewBox="0 0 350.000000 350.000000"
 preserveAspectRatio="xMidYMid meet">

<g transform="translate(0.000000,350.000000) scale(0.100000,-0.100000)"
fill="#525252" stroke="none">
<path d="M1581 3470 c-598 -63 -1111 -417 -1377 -951 -275 -552 -234 -1197
110 -1718 254 -385 673 -660 1135 -743 152 -27 420 -29 565 -4 496 85 901 349
1178 770 332 505 365 1165 84 1713 -89 173 -179 296 -316 433 -263 262 -582
427 -940 485 -120 19 -329 26 -439 15z m1157 -663 c58 -27 124 -92 147 -143 9
-21 21 -47 26 -56 12 -23 12 -173 0 -196 -5 -9 -15 -30 -22 -46 -22 -46 -92
-119 -140 -144 -53 -29 -173 -40 -236 -23 -56 15 -131 67 -169 118 -131 172
-46 444 156 502 25 8 50 15 55 17 26 9 142 -9 183 -29z m-1688 -70 c89 -29
177 -115 210 -204 53 -141 1 -323 -115 -403 -72 -50 -158 -73 -244 -66 -135
11 -236 78 -293 194 -30 60 -33 75 -33 152 1 70 5 94 27 140 45 97 95 142 213
191 49 20 168 18 235 -4z m826 -327 c212 -36 380 -157 468 -335 29 -60 56
-133 56 -157 0 -9 15 -27 33 -39 105 -72 147 -145 147 -255 0 -158 -106 -268
-274 -282 -74 -7 -87 -11 -127 -43 -90 -73 -148 -99 -274 -125 -84 -17 -147
-18 -215 -3 -28 6 -54 8 -57 5 -3 -3 14 -25 38 -48 80 -78 118 -190 98 -287
-29 -140 -106 -223 -250 -269 -84 -28 -193 5 -277 82 -119 109 -137 293 -42
431 55 80 189 144 272 131 51 -8 48 6 -7 38 -103 61 -215 201 -254 319 -87
261 -5 552 199 708 92 70 164 102 280 124 84 16 114 17 186 5z"/>
<path d="M1653 2260 c-77 -18 -123 -76 -123 -153 0 -83 41 -132 125 -148 119
-23 225 80 195 190 -12 46 -80 111 -116 111 -12 0 -28 2 -36 4 -7 2 -28 0 -45
-4z"/>
<path d="M1975 2163 c-65 -8 -75 -13 -75 -37 0 -61 -25 -131 -60 -167 -53 -56
-159 -76 -233 -45 -30 12 -97 77 -97 94 0 4 -4 13 -8 20 -7 9 -23 7 -76 -12
-38 -14 -70 -27 -72 -29 -7 -7 36 -100 62 -134 34 -44 100 -88 165 -109 63
-20 65 -23 74 -81 6 -40 3 -47 -29 -84 -19 -23 -45 -62 -57 -88 -43 -91 -21
-249 31 -221 10 5 28 10 39 10 11 0 31 5 44 11 21 9 25 20 30 70 10 109 65
160 182 167 77 5 128 -17 170 -75 16 -23 35 -42 42 -42 15 -1 120 46 126 57
10 15 -39 98 -80 138 -26 26 -71 54 -115 72 -73 30 -73 30 -86 82 l-13 51 41
46 c61 70 96 207 74 291 -6 22 -13 24 -79 15z"/>
</g>
</svg>
