<?xml version="1.0" standalone="no"?>
<!DOCTYPE svg PUBLIC "-//W3C//DTD SVG 20010904//EN"
 "http://www.w3.org/TR/2001/REC-SVG-20010904/DTD/svg10.dtd">
<svg version="1.0" xmlns="http://www.w3.org/2000/svg"
 width="900.000000pt" height="900.000000pt" viewBox="0 0 900.000000 900.000000"
 preserveAspectRatio="xMidYMid meet">

<g transform="translate(0.000000,900.000000) scale(0.100000,-0.100000)"
fill="#525252" stroke="none">
<path d="M4226 8889 c-841 -50 -1687 -361 -2361 -868 -173 -129 -387 -316
-495 -429 -194 -206 -264 -288 -391 -457 -674 -896 -983 -2056 -843 -3165 228
-1809 1531 -3283 3293 -3724 818 -205 1652 -173 2455 94 1429 476 2514 1652
2875 3118 90 363 125 657 124 1047 0 301 -13 464 -59 736 -185 1098 -790 2093
-1684 2769 -834 629 -1869 942 -2914 879z m-577 -1681 c16 -35 77 -171 136
-303 59 -132 187 -418 285 -635 98 -217 246 -548 330 -735 83 -187 187 -419
231 -516 43 -96 79 -179 79 -182 0 -4 -161 -7 -357 -7 l-358 0 -81 183 c-198
443 -488 1092 -490 1095 -2 4 -172 -171 -619 -643 -219 -231 -440 -463 -490
-515 -51 -52 -168 -175 -260 -272 l-169 -178 -449 0 -449 0 39 43 c38 44 726
768 903 952 53 55 233 244 400 420 167 176 347 365 400 420 266 276 875 919
878 926 7 17 14 8 41 -53z m4179 -2911 c-316 -331 -1076 -1130 -1658 -1742
-57 -60 -156 -164 -220 -230 -63 -66 -216 -227 -340 -357 -123 -131 -225 -236
-226 -235 -1 2 -209 466 -379 847 -145 324 -707 1575 -712 1583 -2 4 159 6
358 5 l362 -3 189 -420 c103 -231 232 -518 286 -638 l97 -218 60 63 c33 35
238 250 455 478 217 228 478 503 580 610 102 107 242 254 311 327 l124 132
453 1 454 0 -194 -203z"/>
</g>
</svg>
